<?xml version="1.0" standalone="no"?>
<!DOCTYPE svg PUBLIC "-//W3C//DTD SVG 20010904//EN"
 "http://www.w3.org/TR/2001/REC-SVG-20010904/DTD/svg10.dtd">
<svg version="1.0" xmlns="http://www.w3.org/2000/svg"
 width="512.000000pt" height="512.000000pt" viewBox="0 0 512.000000 512.000000"
 preserveAspectRatio="xMidYMid meet">
<metadata>
Created by potrace 1.14, written by Peter Selinger 2001-2017
</metadata>
<g transform="translate(0.000000,512.000000) scale(0.100000,-0.100000)"
fill="#000000" stroke="none">
<path d="M1374 4946 c-17 -8 -44 -31 -60 -52 l-29 -37 -6 -341 c-4 -188 -12
-366 -18 -396 -21 -107 -24 -136 -25 -277 -2 -121 6 -223 27 -334 5 -25 -5
-30 -256 -154 -309 -150 -322 -159 -348 -208 -18 -34 -20 -57 -19 -216 2 -170
3 -180 25 -213 33 -48 74 -74 123 -77 8 -1 12 -24 12 -81 l0 -80 -40 0 -40 0
0 -790 0 -790 -41 -81 -40 -81 3 -237 c3 -260 5 -266 72 -314 l31 -22 921 -3
c1023 -3 967 -6 1021 65 l28 36 3 236 3 236 -41 83 -40 83 0 878 0 878 24 22
c51 48 57 77 56 263 -2 182 -8 211 -54 252 -12 10 -145 79 -298 154 -244 119
-276 137 -272 156 2 12 6 32 8 46 31 160 24 518 -11 600 -4 8 -9 171 -12 361
l-6 346 -29 37 c-48 63 -62 66 -368 66 -207 -1 -281 -4 -304 -14z"/>
<path d="M2922 1833 c-7 -3 -19 -18 -27 -33 -13 -25 -15 -131 -15 -728 0 -776
-1 -766 65 -833 75 -78 38 -74 715 -77 441 -2 616 0 645 9 56 16 108 56 142
109 l28 45 3 720 c3 766 3 768 -45 786 -25 9 -1487 12 -1511 2z"/>
</g>
</svg>
